<?xml version="1.0" standalone="no"?>
<!DOCTYPE svg PUBLIC "-//W3C//DTD SVG 20010904//EN"
 "http://www.w3.org/TR/2001/REC-SVG-20010904/DTD/svg10.dtd">
<svg version="1.0" xmlns="http://www.w3.org/2000/svg"
 width="500px" height="500px" viewBox="0 0 500 500"
 preserveAspectRatio="xMidYMid meet">
<g transform="translate(72,512) scale(0.100000,-0.100000)"
fill="#FFFFFF" stroke="none">
<path d="M1615 4084 c-184 -27 -398 -113 -508 -204 -7 -6 -37 -30 -68 -55 -87
-70 -207 -222 -265 -337 -81 -160 -114 -305 -114 -500 0 -265 45 -397 226
-669 84 -126 115 -181 119 -213 28 -186 -186 -297 -332 -171 -34 29 -49 35
-88 35 -53 0 -81 -20 -95 -68 -17 -63 13 -112 104 -169 172 -109 416 -68 536
91 68 90 84 137 84 251 0 94 -2 104 -35 175 -20 41 -60 106 -89 144 -29 38
-75 106 -101 151 -250 425 -105 967 326 1219 95 55 202 91 338 112 116 19 220
10 364 -32 192 -55 376 -193 488 -365 63 -95 89 -155 121 -274 40 -147 38
-290 -6 -435 -38 -126 -104 -255 -199 -385 -95 -131 -115 -183 -115 -310 -1
-92 1 -105 31 -167 124 -262 471 -320 663 -112 38 41 41 49 37 87 -10 88 -111
125 -175 64 -38 -36 -110 -67 -157 -67 -81 0 -159 58 -185 136 -28 85 0 168
114 334 174 253 226 400 226 645 0 298 -109 560 -319 772 -81 81 -210 175
-291 211 -191 86 -260 102 -455 107 -82 2 -163 1 -180 -1z"/>
<path d="M1965 2803 c-10 -3 -37 -26 -60 -51 -96 -110 -111 -122 -149 -122
-41 0 -52 10 -125 104 -24 31 -55 59 -68 62 -36 9 -100 -2 -118 -20 -9 -9 -13
-16 -9 -16 5 0 3 -5 -4 -12 -22 -22 -14 -84 15 -120 15 -18 30 -35 33 -38 13
-11 82 -132 104 -181 52 -120 78 -288 64 -409 -32 -281 -178 -509 -413 -648
-129 -77 -346 -131 -470 -117 -215 23 -400 105 -539 240 -32 31 -55 51 -51 43
3 -7 1 -6 -7 3 -34 41 -111 27 -145 -26 -30 -45 -29 -58 6 -108 57 -83 175
-179 297 -240 249 -125 531 -152 789 -76 72 22 197 78 203 91 2 5 8 8 14 8 17
0 109 64 168 117 65 58 119 115 166 177 69 91 119 86 201 -17 111 -139 253
-256 378 -312 33 -15 75 -33 92 -41 115 -52 363 -78 524 -55 93 14 230 56 311
97 160 80 324 221 335 287 7 47 -10 89 -46 110 -36 21 -60 21 -87 2 -12 -8
-23 -12 -26 -10 -2 3 -21 -13 -42 -35 -167 -176 -458 -283 -683 -250 -330 48
-580 237 -698 528 -67 165 -74 401 -16 571 33 97 80 185 137 256 61 76 69 128
27 175 -28 30 -70 43 -108 33z"/>
<path d="M1244 2591 c-60 -26 -73 -114 -26 -171 176 -216 162 -521 -34 -718
-73 -73 -171 -124 -284 -148 -152 -31 -326 22 -457 140 -68 62 -95 71 -143 50
-53 -23 -77 -78 -56 -127 32 -79 180 -186 330 -240 104 -38 278 -48 396 -23
92 19 235 89 313 153 206 171 304 448 253 715 -23 118 -83 248 -150 323 -33
38 -49 47 -81 51 -22 2 -50 0 -61 -5z"/>
<path d="M2173 2581 c-50 -31 -131 -163 -173 -281 -34 -97 -40 -286 -12 -398
25 -98 72 -197 132 -276 46 -61 147 -151 197 -176 15 -8 39 -22 53 -31 14 -9
61 -29 105 -45 74 -26 91 -28 230 -29 140 0 156 2 230 28 115 41 200 91 275
164 63 61 67 67 69 114 1 29 -2 49 -9 49 -5 0 -10 6 -10 14 0 8 -5 18 -12 22
-7 5 -8 2 -3 -7 5 -8 -3 -4 -17 9 -13 12 -32 22 -42 22 -25 0 -70 -28 -124
-77 -105 -96 -292 -156 -419 -133 -229 39 -393 184 -447 395 -20 75 -20 194
-1 268 17 67 66 167 91 188 23 19 44 71 44 108 0 71 -91 113 -157 72z"/>
</g>
</svg>
